<?xml version="1.0" encoding="UTF-8" standalone="no"?>
<!-- Created with Inkscape (http://www.inkscape.org/) -->

<svg
   xmlns:dc="http://purl.org/dc/elements/1.1/"
   xmlns:cc="http://creativecommons.org/ns#"
   xmlns:rdf="http://www.w3.org/1999/02/22-rdf-syntax-ns#"
   xmlns:svg="http://www.w3.org/2000/svg"
   xmlns="http://www.w3.org/2000/svg"
   xmlns:sodipodi="http://sodipodi.sourceforge.net/DTD/sodipodi-0.dtd"
   xmlns:inkscape="http://www.inkscape.org/namespaces/inkscape"
   width="4.6602244mm"
   height="5.4246264mm"
   viewBox="0 0 4.6602245 5.4246263"
   version="1.1"
   id="svg1025"
   inkscape:version="0.92.3 (2405546, 2018-03-11)"
   sodipodi:docname="area.svg">
  <defs
     id="defs1019">
    <inkscape:path-effect
       effect="spiro"
       id="path-effect960"
       is_visible="true" />
  </defs>
  <sodipodi:namedview
     id="base"
     pagecolor="#ffffff"
     bordercolor="#666666"
     borderopacity="1.0"
     inkscape:pageopacity="0.0"
     inkscape:pageshadow="2"
     inkscape:zoom="7.9195959"
     inkscape:cx="-16.705322"
     inkscape:cy="22.069683"
     inkscape:document-units="mm"
     inkscape:current-layer="layer1"
     showgrid="false"
     inkscape:window-width="930"
     inkscape:window-height="1023"
     inkscape:window-x="990"
     inkscape:window-y="27"
     inkscape:window-maximized="0" />
  <metadata
     id="metadata1022">
    <rdf:RDF>
      <cc:Work
         rdf:about="">
        <dc:format>image/svg+xml</dc:format>
        <dc:type
           rdf:resource="http://purl.org/dc/dcmitype/StillImage" />
        <dc:title />
      </cc:Work>
    </rdf:RDF>
  </metadata>
  <g
     inkscape:label="Layer 1"
     inkscape:groupmode="layer"
     id="layer1"
     transform="translate(85.716185,-107.93228)">
    <path
       style="fill:#044e54;stroke:#044e54;stroke-width:0.36500001;stroke-linecap:butt;stroke-linejoin:miter;stroke-miterlimit:4;stroke-dasharray:none;stroke-opacity:1;fill-opacity:1"
       d="m -85.531467,109.93155 c 0.0049,-0.19949 0.01488,-0.39997 0.05706,-0.59502 0.04218,-0.19505 0.118125,-0.38571 0.24362,-0.54087 0.186646,-0.23076 0.469044,-0.36629 0.756691,-0.4394 0.287647,-0.0731 0.585966,-0.0907 0.880334,-0.12855 0.3626,-0.0466 0.724161,-0.1246 1.089509,-0.11139 0.182674,0.007 0.365678,0.0365 0.536098,0.10259 0.17042,0.0661 0.32812,0.16955 0.44573,0.30948 0.174999,0.20822 0.251341,0.48373 0.274278,0.75475 0.02294,0.27102 -0.0027,0.54349 -0.007,0.81545 -0.0055,0.34478 0.02329,0.68957 0.01357,1.03426 -0.0097,0.34469 -0.06015,0.69509 -0.214025,1.00368 -0.19519,0.39145 -0.554671,0.69454 -0.968851,0.83521 -0.489471,0.16624 -1.022955,0.11064 -1.5368,0.16705 -0.201278,0.0221 -0.408251,0.0612 -0.603202,0.006 -0.09748,-0.0274 -0.189886,-0.0793 -0.254219,-0.15749 -0.03217,-0.0391 -0.057,-0.0844 -0.07099,-0.13306 -0.01399,-0.0487 -0.017,-0.10063 -0.007,-0.15026 0.0125,-0.0623 0.0451,-0.11952 0.08822,-0.16614 0.04311,-0.0466 0.09643,-0.083 0.153151,-0.11155 0.113437,-0.0571 0.239441,-0.0833 0.35999,-0.12321 0.112826,-0.0374 0.222109,-0.0875 0.319034,-0.15629 0.09692,-0.0688 0.181336,-0.15682 0.238237,-0.26117 0.0569,-0.10435 0.08535,-0.22546 0.07205,-0.34357 -0.0133,-0.11811 -0.06995,-0.23237 -0.161595,-0.30805 -0.07717,-0.0637 -0.175415,-0.0982 -0.27463,-0.1113 -0.09921,-0.0131 -0.200003,-0.006 -0.299379,0.006 -0.09938,0.0118 -0.198291,0.0284 -0.29819,0.0344 -0.0999,0.006 -0.201712,0.001 -0.297106,-0.0292 -0.112551,-0.0357 -0.212662,-0.10617 -0.290662,-0.19482 -0.078,-0.0886 -0.134469,-0.19501 -0.172305,-0.30686 -0.07567,-0.2237 -0.07742,-0.46494 -0.07157,-0.70103 z"
       id="path958"
       inkscape:connector-curvature="0"
       inkscape:path-effect="#path-effect960"
       inkscape:original-d="m -85.531467,109.93155 c -0.178446,-0.40064 0.200715,-0.75753 0.300677,-1.13589 0.09996,-0.37837 1.091616,-0.3789 1.637025,-0.56795 0.545411,-0.18905 1.381156,0.20019 2.071337,0.30068 0.690182,0.10049 0.178446,1.04654 0.267272,1.5702 0.08882,0.52367 -0.133371,1.35836 -0.200454,2.03794 -0.06708,0.67957 -0.645636,0.55654 -0.968851,0.83521 -0.323215,0.27867 -1.024267,0.1111 -1.5368,0.16705 -0.512529,0.0559 -0.623363,-0.28981 -0.935442,-0.43432 -0.312079,-0.14451 0.401169,-0.26753 0.601356,-0.4009 0.200189,-0.13337 0.312078,-0.71299 0.467722,-1.06908 0.155641,-0.3561 -0.779272,-0.0671 -1.169305,-0.10023 -0.390033,-0.0331 -0.356095,-0.80207 -0.534537,-1.20271 z" />
  </g>
</svg>
