<?xml version="1.0" encoding="UTF-8" standalone="no"?>
<!-- Created with Inkscape (http://www.inkscape.org/) -->

<svg
   xmlns:dc="http://purl.org/dc/elements/1.1/"
   xmlns:cc="http://creativecommons.org/ns#"
   xmlns:rdf="http://www.w3.org/1999/02/22-rdf-syntax-ns#"
   xmlns:svg="http://www.w3.org/2000/svg"
   xmlns="http://www.w3.org/2000/svg"
   xmlns:sodipodi="http://sodipodi.sourceforge.net/DTD/sodipodi-0.dtd"
   xmlns:inkscape="http://www.inkscape.org/namespaces/inkscape"
   width="4.7709942mm"
   height="5.67208mm"
   viewBox="0 0 4.7709942 5.67208"
   version="1.1"
   id="svg1025"
   inkscape:version="0.92.3 (2405546, 2018-03-11)"
   sodipodi:docname="depth.svg">
  <defs
     id="defs1019" />
  <sodipodi:namedview
     id="base"
     pagecolor="#ffffff"
     bordercolor="#666666"
     borderopacity="1.0"
     inkscape:pageopacity="0.0"
     inkscape:pageshadow="2"
     inkscape:zoom="11.2"
     inkscape:cx="-5.6921507"
     inkscape:cy="15.719227"
     inkscape:document-units="mm"
     inkscape:current-layer="layer1"
     showgrid="false"
     inkscape:window-width="930"
     inkscape:window-height="1023"
     inkscape:window-x="990"
     inkscape:window-y="27"
     inkscape:window-maximized="0" />
  <metadata
     id="metadata1022">
    <rdf:RDF>
      <cc:Work
         rdf:about="">
        <dc:format>image/svg+xml</dc:format>
        <dc:type
           rdf:resource="http://purl.org/dc/dcmitype/StillImage" />
        <dc:title />
      </cc:Work>
    </rdf:RDF>
  </metadata>
  <g
     inkscape:label="Layer 1"
     inkscape:groupmode="layer"
     id="layer1"
     transform="translate(13.082508,-147.30585)">
    <path
       style="fill:#044e54;stroke-width:0.04332037;fill-opacity:1"
       d="m -10.858057,148.58027 c -0.05457,-0.0421 -0.180561,-0.21992 -0.279982,-0.395 -0.244454,-0.43046 -0.30936,-0.42822 -0.567116,0.0195 -0.324755,0.56417 -0.529359,0.55122 -0.881032,-0.0557 -0.163516,-0.28223 -0.253216,-0.39557 -0.313051,-0.39557 -0.103656,0 -0.166663,-0.12188 -0.152379,-0.29479 0.0088,-0.10706 0.03413,-0.1341 0.139082,-0.14885 0.187014,-0.0264 0.291727,0.0714 0.512457,0.4779 0.122705,0.22601 0.223552,0.36294 0.267282,0.36294 0.04078,0 0.164502,-0.15192 0.295063,-0.36231 0.353289,-0.56931 0.519569,-0.55799 0.904019,0.0615 0.271078,0.43683 0.280177,0.43572 0.595332,-0.0727 0.3483431,-0.56204 0.5387711,-0.56407 0.8754551,-0.01 0.27076,0.44611 0.311462,0.44387 0.578626,-0.0317 0.163494,-0.29106 0.237174,-0.38084 0.338414,-0.41236 0.153244,-0.0478 0.234373,0.0225 0.234373,0.20279 0,0.13354 -0.02768,0.17249 -0.200095,0.28123 -0.05548,0.035 -0.159454,0.1905 -0.231047,0.34558 -0.08613,0.18655 -0.177395,0.31289 -0.269754,0.37342 -0.217254,0.14236 -0.335085,0.0741 -0.604362,-0.34985 -0.128074,-0.20167 -0.255501,-0.36666 -0.283169,-0.36666 -0.02767,0 -0.1448941,0.15099 -0.2605041,0.33551 -0.322069,0.5141 -0.473005,0.60811 -0.697612,0.43454 z"
       id="path843"
       inkscape:connector-curvature="0"
       sodipodi:nodetypes="csscccscssscsscsccsccccc" />
    <path
       style="fill:none;stroke:#044e54;stroke-width:0.58600003;stroke-linecap:butt;stroke-linejoin:miter;stroke-miterlimit:4;stroke-dasharray:none;stroke-opacity:1"
       d="m -13.082508,152.68493 h 4.7601391"
       id="path847"
       inkscape:connector-curvature="0" />
    <path
       style="fill:none;stroke:#044e54;stroke-width:0.26458332px;stroke-linecap:butt;stroke-linejoin:miter;stroke-opacity:1"
       d="m -10.611158,149.06081 v 2.58917 l 0.7851061,-0.96885"
       id="path905"
       inkscape:connector-curvature="0" />
    <path
       style="fill:none;stroke:#044e54;stroke-width:0.26458332px;stroke-linecap:butt;stroke-linejoin:miter;stroke-opacity:1"
       d="m -10.84025,149.06081 v 2.58917 l -0.785106,-0.96885"
       id="path905-5"
       inkscape:connector-curvature="0" />
  </g>
</svg>
