<?xml version="1.0" encoding="UTF-8" standalone="no"?>
<!-- Created with Inkscape (http://www.inkscape.org/) -->

<svg
   xmlns:dc="http://purl.org/dc/elements/1.1/"
   xmlns:cc="http://creativecommons.org/ns#"
   xmlns:rdf="http://www.w3.org/1999/02/22-rdf-syntax-ns#"
   xmlns:svg="http://www.w3.org/2000/svg"
   xmlns="http://www.w3.org/2000/svg"
   xmlns:sodipodi="http://sodipodi.sourceforge.net/DTD/sodipodi-0.dtd"
   xmlns:inkscape="http://www.inkscape.org/namespaces/inkscape"
   width="59.529354mm"
   height="54.769218mm"
   viewBox="0 0 59.529354 54.769218"
   version="1.1"
   id="svg8"
   inkscape:version="0.92.3 (2405546, 2018-03-11)"
   sodipodi:docname="download.svg">
  <defs
     id="defs2" />
  <sodipodi:namedview
     id="base"
     pagecolor="#ffffff"
     bordercolor="#666666"
     borderopacity="1.0"
     inkscape:pageopacity="0.0"
     inkscape:pageshadow="2"
     inkscape:zoom="1.979899"
     inkscape:cx="253.37211"
     inkscape:cy="98.538571"
     inkscape:document-units="mm"
     inkscape:current-layer="layer1"
     showgrid="false"
     inkscape:window-width="1859"
     inkscape:window-height="1025"
     inkscape:window-x="61"
     inkscape:window-y="27"
     inkscape:window-maximized="1" />
  <metadata
     id="metadata5">
    <rdf:RDF>
      <cc:Work
         rdf:about="">
        <dc:format>image/svg+xml</dc:format>
        <dc:type
           rdf:resource="http://purl.org/dc/dcmitype/StillImage" />
        <dc:title></dc:title>
      </cc:Work>
    </rdf:RDF>
  </metadata>
  <g
     inkscape:label="Layer 1"
     inkscape:groupmode="layer"
     id="layer1"
     transform="translate(-70.020095,-54.924783)">
    <path
       style="fill:#044e54;stroke-width:0.26458332;fill-opacity:1"
       d="m 71.478925,109.1203 c -1.33286,-1.04842 -1.45883,-1.77571 -1.45883,-8.42224 0,-6.646537 0.12597,-7.373817 1.45883,-8.422247 0.71512,-0.56251 0.9006,-0.57359 9.608715,-0.57359 h 8.879516 l 2.807448,2.76653 c 3.187737,3.14126 4.836969,4.10747 7.011116,4.10747 2.16328,0 3.75391,-0.93719 6.94064,-4.08936 l 2.81516,-2.78464 8.74814,10e-4 c 12.06398,0.001 11.33153,-0.61261 11.20854,9.395617 -0.0744,6.05896 -0.11204,6.48521 -0.63382,7.18727 -0.30507,0.41048 -0.84085,0.8934 -1.19062,1.07316 -0.49252,0.25311 -6.81938,0.32771 -28.050796,0.33073 l -27.414839,0.004 z m 43.664655,-4.57376 c 2.05084,-2.05084 -0.86186,-5.101027 -3.15135,-3.30011 -0.9185,0.72249 -0.98059,2.42309 -0.12185,3.33718 0.80784,0.8599 2.39419,0.84194 3.2732,-0.0371 z m 9.16777,-0.0615 c 0.79023,-0.75709 0.93514,-1.60717 0.43428,-2.54758 -0.78417,-1.47232 -2.46251,-1.68477 -3.6813,-0.46598 -2.21149,2.21149 0.98636,5.17941 3.24702,3.01356 z M 90.060779,84.887753 c -6.338834,-6.34102 -8.663601,-8.82946 -8.663601,-9.27355 0,-0.92843 0.702748,-2.08224 1.378467,-2.26325 0.333249,-0.0893 2.778799,-0.16393 5.434554,-0.16592 l 4.828646,-0.004 v -8.57975 -8.57976 l 0.69714,-0.54837 c 0.653098,-0.51373 1.035289,-0.54837 6.049735,-0.54837 5.01445,0 5.39664,0.0346 6.04973,0.54837 l 0.69714,0.54837 v 8.57976 8.57975 h 5.01233 c 4.82114,0 5.03814,0.0227 5.68883,0.59531 0.37207,0.32742 0.75292,0.99299 0.84634,1.47904 0.16726,0.87027 0.0372,1.01636 -8.53757,9.59115 -8.52286,8.52285 -8.72979,8.70742 -9.76278,8.70742 -1.032951,0 -1.239324,-0.18403 -9.718961,-8.66659 z"
       id="path826"
       inkscape:connector-curvature="0" />
  </g>
</svg>
