<?xml version="1.0" encoding="UTF-8" standalone="no"?>
<svg
   xmlns:dc="http://purl.org/dc/elements/1.1/"
   xmlns:cc="http://creativecommons.org/ns#"
   xmlns:rdf="http://www.w3.org/1999/02/22-rdf-syntax-ns#"
   xmlns:svg="http://www.w3.org/2000/svg"
   xmlns="http://www.w3.org/2000/svg"
   xmlns:sodipodi="http://sodipodi.sourceforge.net/DTD/sodipodi-0.dtd"
   xmlns:inkscape="http://www.inkscape.org/namespaces/inkscape"
   viewBox="0 0 24 24"
   class="icon-home"
   version="1.1"
   id="svg33"
   sodipodi:docname="home.svg"
   inkscape:version="0.92.3 (2405546, 2018-03-11)">
  <metadata
     id="metadata39">
    <rdf:RDF>
      <cc:Work
         rdf:about="">
        <dc:format>image/svg+xml</dc:format>
        <dc:type
           rdf:resource="http://purl.org/dc/dcmitype/StillImage" />
      </cc:Work>
    </rdf:RDF>
  </metadata>
  <defs
     id="defs37" />
  <sodipodi:namedview
     pagecolor="#ffffff"
     bordercolor="#666666"
     borderopacity="1"
     objecttolerance="10"
     gridtolerance="10"
     guidetolerance="10"
     inkscape:pageopacity="0"
     inkscape:pageshadow="2"
     inkscape:window-width="873"
     inkscape:window-height="795"
     id="namedview35"
     showgrid="false"
     inkscape:zoom="9.8333333"
     inkscape:cx="12"
     inkscape:cy="12"
     inkscape:window-x="61"
     inkscape:window-y="27"
     inkscape:window-maximized="0"
     inkscape:current-layer="svg33" />
  <path
     class="primary"
     d="M9 22H5a1 1 0 0 1-1-1V11l8-8 8 8v10a1 1 0 0 1-1 1h-4a1 1 0 0 1-1-1v-4a1 1 0 0 0-1-1h-2a1 1 0 0 0-1 1v4a1 1 0 0 1-1 1zm3-9a2 2 0 1 0 0-4 2 2 0 0 0 0 4z"
     id="path29"
     style="fill:#044e54;fill-opacity:1" />
  <path
     class="secondary"
     d="M12.01 4.42l-8.3 8.3a1 1 0 1 1-1.42-1.41l9.02-9.02a1 1 0 0 1 1.41 0l8.99 9.02a1 1 0 0 1-1.42 1.41l-8.28-8.3z"
     id="path31"
     style="fill:#044e54;fill-opacity:1" />
</svg>
