<?xml version="1.0" encoding="UTF-8" standalone="no"?>
<!-- Created with Inkscape (http://www.inkscape.org/) -->

<svg
   xmlns:dc="http://purl.org/dc/elements/1.1/"
   xmlns:cc="http://creativecommons.org/ns#"
   xmlns:rdf="http://www.w3.org/1999/02/22-rdf-syntax-ns#"
   xmlns:svg="http://www.w3.org/2000/svg"
   xmlns="http://www.w3.org/2000/svg"
   xmlns:sodipodi="http://sodipodi.sourceforge.net/DTD/sodipodi-0.dtd"
   xmlns:inkscape="http://www.inkscape.org/namespaces/inkscape"
   width="4.7630682mm"
   height="5.6409168mm"
   viewBox="0 0 4.7630682 5.6409168"
   version="1.1"
   id="svg1025"
   inkscape:version="0.92.3 (2405546, 2018-03-11)"
   sodipodi:docname="location.svg">
  <defs
     id="defs1019" />
  <sodipodi:namedview
     id="base"
     pagecolor="#ffffff"
     bordercolor="#666666"
     borderopacity="1.0"
     inkscape:pageopacity="0.0"
     inkscape:pageshadow="2"
     inkscape:zoom="0.35"
     inkscape:cx="-312.4275"
     inkscape:cy="-43.625701"
     inkscape:document-units="mm"
     inkscape:current-layer="layer1"
     showgrid="false"
     inkscape:window-width="930"
     inkscape:window-height="1025"
     inkscape:window-x="990"
     inkscape:window-y="27"
     inkscape:window-maximized="0" />
  <metadata
     id="metadata1022">
    <rdf:RDF>
      <cc:Work
         rdf:about="">
        <dc:format>image/svg+xml</dc:format>
        <dc:type
           rdf:resource="http://purl.org/dc/dcmitype/StillImage" />
        <dc:title></dc:title>
      </cc:Work>
    </rdf:RDF>
  </metadata>
  <g
     inkscape:label="Layer 1"
     inkscape:groupmode="layer"
     id="layer1"
     transform="translate(-56.582751,-131.64978)">
    <g
       id="g819"
       transform="matrix(0.26458333,0,0,0.26458333,55.786907,131.3852)">
      <path
         id="path815"
         d="m 12,1 v 6 a 3,3 0 0 0 0,6 v 9.31 A 1,1 0 0 1 11.3,22.02 L 5.64,16.36 A 9,9 0 0 1 12,1 Z"
         class="secondary"
         inkscape:connector-curvature="0" />
      <path
         id="path817"
         d="m 12,1 c 8.011628,0.00705 12.021555,9.691401 6.36,15.36 l -5.65,5.66 c -0.187071,0.190856 -0.442754,0.298891 -0.71,0.3 V 14.975899 13 c 3.999998,0 3.999998,-6 0,-6 z"
         class="primary"
         inkscape:connector-curvature="0"
         sodipodi:nodetypes="cccccccc" />
    </g>
  </g>
</svg>
