<?xml version="1.0" encoding="UTF-8" standalone="no"?>
<svg
   xmlns:dc="http://purl.org/dc/elements/1.1/"
   xmlns:cc="http://creativecommons.org/ns#"
   xmlns:rdf="http://www.w3.org/1999/02/22-rdf-syntax-ns#"
   xmlns:svg="http://www.w3.org/2000/svg"
   xmlns="http://www.w3.org/2000/svg"
   xmlns:sodipodi="http://sodipodi.sourceforge.net/DTD/sodipodi-0.dtd"
   xmlns:inkscape="http://www.inkscape.org/namespaces/inkscape"
   viewBox="0 0 20 20"
   class="icon-phone-ring"
   version="1.1"
   id="svg6"
   sodipodi:docname="icon-phone-ring.svg"
   width="20"
   height="20"
   inkscape:version="0.92.3 (2405546, 2018-03-11)">
  <metadata
     id="metadata12">
    <rdf:RDF>
      <cc:Work
         rdf:about="">
        <dc:format>image/svg+xml</dc:format>
        <dc:type
           rdf:resource="http://purl.org/dc/dcmitype/StillImage" />
      </cc:Work>
    </rdf:RDF>
  </metadata>
  <defs
     id="defs10" />
  <sodipodi:namedview
     pagecolor="#ffffff"
     bordercolor="#666666"
     borderopacity="1"
     objecttolerance="10"
     gridtolerance="10"
     guidetolerance="10"
     inkscape:pageopacity="0"
     inkscape:pageshadow="2"
     inkscape:window-width="1859"
     inkscape:window-height="1025"
     id="namedview8"
     showgrid="false"
     inkscape:zoom="39.333333"
     inkscape:cx="11.26167"
     inkscape:cy="8.6349439"
     inkscape:window-x="61"
     inkscape:window-y="27"
     inkscape:window-maximized="1"
     inkscape:current-layer="svg6" />
  <path
     class="primary"
     d="M 2,2.0828125e-8 H 6 A 1,1 0 0 1 6.98,0.80000002 L 7.98,5.8 A 1,1 0 0 1 7.71,6.7 L 5.19,9.22 a 12.05,12.05 0 0 0 5.59,5.59 l 2.51,-2.52 a 1,1 0 0 1 0.9,-0.27 l 5,1 C 19.66,13.12 20,13.52 20,14 v 4 a 2,2 0 0 1 -2,2 H 16 A 16,16 0 0 1 0,4 V 2 C 0,0.90000002 0.9,2.0828125e-8 2,2.0828125e-8 Z"
     id="path2"
     inkscape:connector-curvature="0"
     style="fill:#38bec9;fill-opacity:1" />
</svg>
